<svg xmlns="http://www.w3.org/2000/svg" xmlns:xlink="http://www.w3.org/1999/xlink" width="500" zoomAndPan="magnify" viewBox="0 0 375 374.999991" height="500" preserveAspectRatio="xMidYMid meet" version="1.0"><defs><g/><clipPath id="321654fd9e"><path d="M 185 121 L 188 121 L 188 191.972656 L 185 191.972656 Z M 185 121 " clip-rule="nonzero"/></clipPath><clipPath id="d6050e53ec"><path d="M 190 121 L 193 121 L 193 191.972656 L 190 191.972656 Z M 190 121 " clip-rule="nonzero"/></clipPath><clipPath id="9f0e26c235"><path d="M 153 121 L 224 121 L 224 191.972656 L 153 191.972656 Z M 153 121 " clip-rule="nonzero"/></clipPath><clipPath id="c33f8d251b"><rect x="0" width="218" y="0" height="54"/></clipPath></defs><g clip-path="url(#321654fd9e)"><path fill="#000000" d="M 186.125 191.285156 C 185.980469 191.285156 185.839844 191.257812 185.707031 191.199219 C 185.570312 191.144531 185.453125 191.066406 185.351562 190.960938 C 185.246094 190.859375 185.167969 190.742188 185.113281 190.605469 C 185.058594 190.472656 185.03125 190.332031 185.03125 190.1875 L 185.03125 122.421875 C 185.03125 122.277344 185.058594 122.136719 185.113281 122.003906 C 185.167969 121.871094 185.246094 121.75 185.351562 121.648438 C 185.453125 121.546875 185.570312 121.464844 185.707031 121.410156 C 185.839844 121.355469 185.980469 121.328125 186.125 121.328125 C 186.269531 121.328125 186.410156 121.355469 186.546875 121.410156 C 186.679688 121.464844 186.796875 121.546875 186.902344 121.648438 C 187.003906 121.75 187.082031 121.871094 187.140625 122.003906 C 187.195312 122.136719 187.222656 122.277344 187.222656 122.421875 L 187.222656 190.1875 C 187.222656 190.332031 187.195312 190.472656 187.140625 190.605469 C 187.082031 190.742188 187.003906 190.859375 186.902344 190.960938 C 186.796875 191.066406 186.679688 191.144531 186.546875 191.199219 C 186.410156 191.257812 186.269531 191.285156 186.125 191.285156 Z M 186.125 191.285156 " fill-opacity="1" fill-rule="nonzero"/></g><path fill="#000000" d="M 180.644531 190.390625 C 180.496094 190.390625 180.359375 190.363281 180.222656 190.308594 C 180.089844 190.253906 179.96875 190.171875 179.867188 190.070312 C 179.765625 189.96875 179.6875 189.847656 179.628906 189.714844 C 179.574219 189.582031 179.546875 189.441406 179.546875 189.296875 L 179.546875 123.316406 C 179.546875 123.171875 179.574219 123.03125 179.628906 122.894531 C 179.6875 122.761719 179.765625 122.644531 179.867188 122.539062 C 179.96875 122.4375 180.089844 122.359375 180.222656 122.300781 C 180.359375 122.246094 180.496094 122.21875 180.644531 122.21875 C 180.789062 122.21875 180.929688 122.246094 181.0625 122.300781 C 181.195312 122.359375 181.316406 122.4375 181.417969 122.539062 C 181.519531 122.644531 181.601562 122.761719 181.65625 122.894531 C 181.710938 123.03125 181.738281 123.171875 181.738281 123.316406 L 181.738281 189.296875 C 181.738281 189.441406 181.710938 189.582031 181.65625 189.714844 C 181.601562 189.847656 181.523438 189.96875 181.417969 190.070312 C 181.316406 190.171875 181.199219 190.253906 181.0625 190.308594 C 180.929688 190.363281 180.789062 190.390625 180.644531 190.390625 Z M 180.644531 190.390625 " fill-opacity="1" fill-rule="nonzero"/><path fill="#000000" d="M 175.160156 188.515625 C 175.015625 188.515625 174.875 188.488281 174.742188 188.433594 C 174.605469 188.375 174.488281 188.296875 174.386719 188.195312 C 174.28125 188.089844 174.203125 187.972656 174.148438 187.839844 C 174.089844 187.703125 174.0625 187.5625 174.0625 187.417969 L 174.0625 125.191406 C 174.0625 125.046875 174.089844 124.90625 174.148438 124.773438 C 174.203125 124.636719 174.28125 124.519531 174.386719 124.417969 C 174.488281 124.3125 174.605469 124.234375 174.742188 124.179688 C 174.875 124.125 175.015625 124.09375 175.160156 124.09375 C 175.304688 124.09375 175.445312 124.125 175.582031 124.179688 C 175.714844 124.234375 175.832031 124.3125 175.9375 124.417969 C 176.039062 124.519531 176.117188 124.636719 176.171875 124.773438 C 176.230469 124.90625 176.257812 125.046875 176.257812 125.191406 L 176.257812 187.417969 C 176.257812 187.5625 176.230469 187.703125 176.171875 187.839844 C 176.117188 187.972656 176.039062 188.089844 175.9375 188.195312 C 175.832031 188.296875 175.714844 188.375 175.582031 188.433594 C 175.445312 188.488281 175.304688 188.515625 175.160156 188.515625 Z M 175.160156 188.515625 " fill-opacity="1" fill-rule="nonzero"/><path fill="#000000" d="M 169.675781 185.460938 C 169.53125 185.460938 169.390625 185.433594 169.257812 185.378906 C 169.125 185.324219 169.003906 185.242188 168.902344 185.140625 C 168.800781 185.039062 168.71875 184.917969 168.664062 184.785156 C 168.609375 184.648438 168.582031 184.511719 168.582031 184.363281 L 168.582031 128.246094 C 168.582031 128.101562 168.609375 127.960938 168.664062 127.828125 C 168.71875 127.691406 168.800781 127.574219 168.902344 127.46875 C 169.003906 127.367188 169.125 127.289062 169.257812 127.234375 C 169.390625 127.175781 169.53125 127.148438 169.675781 127.148438 C 169.824219 127.148438 169.964844 127.175781 170.097656 127.234375 C 170.230469 127.289062 170.351562 127.367188 170.453125 127.46875 C 170.554688 127.574219 170.636719 127.691406 170.691406 127.828125 C 170.746094 127.960938 170.773438 128.101562 170.773438 128.246094 L 170.773438 184.363281 C 170.773438 184.511719 170.746094 184.648438 170.691406 184.785156 C 170.636719 184.917969 170.554688 185.039062 170.453125 185.140625 C 170.351562 185.242188 170.230469 185.324219 170.097656 185.378906 C 169.964844 185.433594 169.824219 185.460938 169.675781 185.460938 Z M 169.675781 185.460938 " fill-opacity="1" fill-rule="nonzero"/><path fill="#000000" d="M 164.195312 180.78125 C 164.050781 180.78125 163.910156 180.753906 163.773438 180.699219 C 163.640625 180.644531 163.523438 180.5625 163.417969 180.460938 C 163.316406 180.359375 163.238281 180.238281 163.183594 180.105469 C 163.125 179.96875 163.097656 179.832031 163.097656 179.683594 L 163.097656 132.925781 C 163.097656 132.78125 163.125 132.640625 163.183594 132.503906 C 163.238281 132.371094 163.316406 132.253906 163.417969 132.148438 C 163.523438 132.046875 163.640625 131.96875 163.773438 131.914062 C 163.910156 131.855469 164.050781 131.828125 164.195312 131.828125 C 164.339844 131.828125 164.480469 131.855469 164.613281 131.914062 C 164.75 131.96875 164.867188 132.046875 164.96875 132.148438 C 165.074219 132.253906 165.152344 132.371094 165.207031 132.503906 C 165.265625 132.640625 165.292969 132.78125 165.292969 132.925781 L 165.292969 179.683594 C 165.292969 179.832031 165.265625 179.96875 165.207031 180.105469 C 165.152344 180.238281 165.074219 180.359375 164.96875 180.460938 C 164.867188 180.5625 164.75 180.644531 164.613281 180.699219 C 164.480469 180.753906 164.339844 180.78125 164.195312 180.78125 Z M 164.195312 180.78125 " fill-opacity="1" fill-rule="nonzero"/><path fill="#000000" d="M 158.710938 173.101562 C 158.566406 173.101562 158.425781 173.074219 158.292969 173.015625 C 158.15625 172.960938 158.039062 172.882812 157.9375 172.78125 C 157.832031 172.675781 157.753906 172.558594 157.699219 172.421875 C 157.644531 172.289062 157.617188 172.148438 157.617188 172.003906 L 157.617188 140.605469 C 157.617188 140.460938 157.644531 140.320312 157.699219 140.1875 C 157.753906 140.050781 157.835938 139.933594 157.9375 139.832031 C 158.039062 139.726562 158.160156 139.648438 158.292969 139.59375 C 158.425781 139.539062 158.566406 139.511719 158.710938 139.511719 C 158.859375 139.511719 158.996094 139.539062 159.132812 139.59375 C 159.265625 139.648438 159.382812 139.726562 159.488281 139.832031 C 159.589844 139.933594 159.667969 140.050781 159.726562 140.1875 C 159.78125 140.320312 159.808594 140.460938 159.808594 140.605469 L 159.808594 172.003906 C 159.808594 172.148438 159.78125 172.289062 159.726562 172.421875 C 159.667969 172.558594 159.589844 172.675781 159.488281 172.78125 C 159.386719 172.882812 159.265625 172.960938 159.132812 173.015625 C 158.996094 173.074219 158.859375 173.101562 158.710938 173.101562 Z M 158.710938 173.101562 " fill-opacity="1" fill-rule="nonzero"/><path fill="#000000" d="M 219.023438 173.105469 C 218.878906 173.105469 218.738281 173.078125 218.601562 173.023438 C 218.46875 172.96875 218.351562 172.890625 218.246094 172.785156 C 218.144531 172.683594 218.066406 172.566406 218.007812 172.429688 C 217.953125 172.296875 217.925781 172.15625 217.925781 172.011719 L 217.925781 140.601562 C 217.925781 140.453125 217.953125 140.316406 218.007812 140.179688 C 218.066406 140.046875 218.144531 139.925781 218.246094 139.824219 C 218.351562 139.722656 218.46875 139.644531 218.601562 139.585938 C 218.738281 139.53125 218.878906 139.503906 219.023438 139.503906 C 219.167969 139.503906 219.308594 139.53125 219.441406 139.585938 C 219.578125 139.644531 219.695312 139.722656 219.796875 139.824219 C 219.902344 139.925781 219.980469 140.046875 220.035156 140.179688 C 220.089844 140.316406 220.117188 140.453125 220.117188 140.601562 L 220.117188 172.011719 C 220.121094 172.15625 220.089844 172.296875 220.035156 172.429688 C 219.980469 172.566406 219.902344 172.683594 219.796875 172.785156 C 219.695312 172.890625 219.578125 172.96875 219.441406 173.023438 C 219.308594 173.078125 219.167969 173.105469 219.023438 173.105469 Z M 219.023438 173.105469 " fill-opacity="1" fill-rule="nonzero"/><path fill="#000000" d="M 202.574219 188.519531 C 202.429688 188.519531 202.289062 188.488281 202.15625 188.433594 C 202.019531 188.378906 201.902344 188.300781 201.796875 188.195312 C 201.695312 188.09375 201.617188 187.976562 201.5625 187.839844 C 201.503906 187.707031 201.476562 187.566406 201.476562 187.421875 L 201.476562 125.191406 C 201.476562 125.042969 201.503906 124.90625 201.5625 124.769531 C 201.617188 124.636719 201.695312 124.515625 201.800781 124.414062 C 201.902344 124.3125 202.019531 124.230469 202.15625 124.175781 C 202.289062 124.121094 202.429688 124.09375 202.574219 124.09375 C 202.71875 124.09375 202.859375 124.121094 202.992188 124.175781 C 203.128906 124.230469 203.246094 124.3125 203.351562 124.414062 C 203.453125 124.515625 203.53125 124.636719 203.585938 124.769531 C 203.644531 124.90625 203.671875 125.042969 203.671875 125.191406 L 203.671875 187.421875 C 203.671875 187.566406 203.644531 187.707031 203.585938 187.839844 C 203.53125 187.976562 203.453125 188.09375 203.351562 188.195312 C 203.246094 188.300781 203.128906 188.378906 202.992188 188.433594 C 202.859375 188.488281 202.71875 188.519531 202.574219 188.519531 Z M 202.574219 188.519531 " fill-opacity="1" fill-rule="nonzero"/><path fill="#000000" d="M 197.089844 190.390625 C 196.945312 190.390625 196.804688 190.363281 196.671875 190.308594 C 196.539062 190.253906 196.417969 190.171875 196.316406 190.070312 C 196.214844 189.96875 196.132812 189.847656 196.078125 189.714844 C 196.023438 189.582031 195.996094 189.441406 195.996094 189.296875 L 195.996094 123.316406 C 195.996094 123.171875 196.023438 123.03125 196.078125 122.894531 C 196.132812 122.761719 196.214844 122.644531 196.316406 122.539062 C 196.417969 122.4375 196.539062 122.359375 196.671875 122.300781 C 196.804688 122.246094 196.945312 122.21875 197.089844 122.21875 C 197.238281 122.21875 197.375 122.246094 197.511719 122.300781 C 197.644531 122.359375 197.765625 122.4375 197.867188 122.539062 C 197.96875 122.644531 198.050781 122.761719 198.105469 122.894531 C 198.160156 123.03125 198.1875 123.171875 198.1875 123.316406 L 198.1875 189.296875 C 198.1875 189.441406 198.160156 189.582031 198.105469 189.714844 C 198.050781 189.847656 197.96875 189.96875 197.867188 190.070312 C 197.765625 190.171875 197.644531 190.253906 197.511719 190.308594 C 197.375 190.363281 197.238281 190.390625 197.089844 190.390625 Z M 197.089844 190.390625 " fill-opacity="1" fill-rule="nonzero"/><g clip-path="url(#d6050e53ec)"><path fill="#000000" d="M 191.609375 191.285156 C 191.464844 191.285156 191.324219 191.257812 191.1875 191.203125 C 191.054688 191.144531 190.9375 191.066406 190.832031 190.964844 C 190.730469 190.859375 190.652344 190.742188 190.59375 190.609375 C 190.539062 190.472656 190.511719 190.332031 190.511719 190.1875 L 190.511719 122.421875 C 190.511719 122.277344 190.539062 122.136719 190.59375 122.003906 C 190.652344 121.867188 190.730469 121.75 190.832031 121.648438 C 190.9375 121.542969 191.054688 121.464844 191.1875 121.410156 C 191.324219 121.355469 191.464844 121.324219 191.609375 121.324219 C 191.753906 121.324219 191.894531 121.355469 192.027344 121.410156 C 192.164062 121.464844 192.28125 121.542969 192.382812 121.648438 C 192.488281 121.75 192.566406 121.867188 192.621094 122.003906 C 192.675781 122.136719 192.707031 122.277344 192.707031 122.421875 L 192.707031 190.1875 C 192.707031 190.332031 192.675781 190.472656 192.621094 190.609375 C 192.566406 190.742188 192.488281 190.859375 192.382812 190.964844 C 192.28125 191.066406 192.164062 191.144531 192.027344 191.203125 C 191.894531 191.257812 191.753906 191.285156 191.609375 191.285156 Z M 191.609375 191.285156 " fill-opacity="1" fill-rule="nonzero"/></g><path fill="#000000" d="M 213.539062 180.785156 C 213.394531 180.785156 213.253906 180.757812 213.121094 180.703125 C 212.984375 180.644531 212.867188 180.566406 212.765625 180.464844 C 212.660156 180.359375 212.582031 180.242188 212.527344 180.109375 C 212.472656 179.972656 212.441406 179.832031 212.441406 179.6875 L 212.441406 132.921875 C 212.441406 132.777344 212.472656 132.636719 212.527344 132.503906 C 212.582031 132.367188 212.660156 132.25 212.765625 132.148438 C 212.867188 132.042969 212.984375 131.964844 213.121094 131.910156 C 213.253906 131.851562 213.394531 131.824219 213.539062 131.824219 C 213.683594 131.824219 213.824219 131.851562 213.960938 131.910156 C 214.09375 131.964844 214.210938 132.042969 214.316406 132.148438 C 214.417969 132.25 214.496094 132.367188 214.554688 132.503906 C 214.609375 132.636719 214.636719 132.777344 214.636719 132.921875 L 214.636719 179.6875 C 214.636719 179.832031 214.609375 179.972656 214.554688 180.109375 C 214.496094 180.242188 214.417969 180.359375 214.316406 180.464844 C 214.210938 180.566406 214.09375 180.644531 213.960938 180.703125 C 213.824219 180.757812 213.683594 180.785156 213.539062 180.785156 Z M 213.539062 180.785156 " fill-opacity="1" fill-rule="nonzero"/><path fill="#000000" d="M 208.058594 185.464844 C 207.910156 185.464844 207.773438 185.4375 207.636719 185.378906 C 207.503906 185.324219 207.382812 185.246094 207.28125 185.144531 C 207.179688 185.039062 207.097656 184.921875 207.042969 184.785156 C 206.988281 184.652344 206.960938 184.511719 206.960938 184.367188 L 206.960938 128.242188 C 206.960938 128.097656 206.988281 127.957031 207.042969 127.824219 C 207.101562 127.691406 207.179688 127.570312 207.28125 127.46875 C 207.382812 127.367188 207.503906 127.285156 207.636719 127.230469 C 207.773438 127.175781 207.910156 127.148438 208.058594 127.148438 C 208.203125 127.148438 208.34375 127.175781 208.476562 127.230469 C 208.609375 127.285156 208.730469 127.367188 208.832031 127.46875 C 208.933594 127.570312 209.015625 127.691406 209.070312 127.824219 C 209.125 127.957031 209.152344 128.097656 209.152344 128.242188 L 209.152344 184.367188 C 209.152344 184.511719 209.125 184.652344 209.070312 184.785156 C 209.015625 184.921875 208.933594 185.039062 208.832031 185.144531 C 208.730469 185.246094 208.609375 185.324219 208.476562 185.378906 C 208.34375 185.4375 208.203125 185.464844 208.058594 185.464844 Z M 208.058594 185.464844 " fill-opacity="1" fill-rule="nonzero"/><g clip-path="url(#9f0e26c235)"><path fill="#000000" d="M 188.871094 191.394531 C 187.71875 191.394531 186.574219 191.335938 185.429688 191.222656 C 184.285156 191.109375 183.152344 190.941406 182.023438 190.71875 C 180.898438 190.496094 179.785156 190.214844 178.683594 189.882812 C 177.585938 189.546875 176.503906 189.160156 175.441406 188.722656 C 174.378906 188.28125 173.34375 187.792969 172.328125 187.25 C 171.316406 186.707031 170.332031 186.117188 169.375 185.480469 C 168.421875 184.839844 167.5 184.15625 166.609375 183.429688 C 165.722656 182.699219 164.871094 181.929688 164.058594 181.117188 C 163.246094 180.304688 162.476562 179.453125 161.746094 178.566406 C 161.015625 177.675781 160.332031 176.753906 159.695312 175.800781 C 159.058594 174.84375 158.464844 173.859375 157.925781 172.84375 C 157.382812 171.832031 156.894531 170.792969 156.453125 169.734375 C 156.011719 168.671875 155.625 167.589844 155.292969 166.492188 C 154.960938 165.390625 154.679688 164.277344 154.457031 163.152344 C 154.230469 162.023438 154.0625 160.886719 153.949219 159.746094 C 153.839844 158.601562 153.78125 157.453125 153.78125 156.304688 C 153.78125 155.15625 153.839844 154.011719 153.949219 152.867188 C 154.0625 151.722656 154.230469 150.585938 154.457031 149.460938 C 154.679688 148.332031 154.960938 147.21875 155.292969 146.121094 C 155.625 145.019531 156.011719 143.941406 156.453125 142.878906 C 156.894531 141.816406 157.382812 140.777344 157.925781 139.765625 C 158.464844 138.75 159.058594 137.765625 159.695312 136.8125 C 160.332031 135.855469 161.015625 134.933594 161.746094 134.046875 C 162.476562 133.15625 163.246094 132.308594 164.058594 131.496094 C 164.871094 130.683594 165.722656 129.910156 166.609375 129.183594 C 167.5 128.453125 168.421875 127.769531 169.375 127.132812 C 170.332031 126.492188 171.316406 125.902344 172.328125 125.359375 C 173.34375 124.820312 174.378906 124.328125 175.441406 123.890625 C 176.503906 123.449219 177.585938 123.0625 178.683594 122.730469 C 179.785156 122.394531 180.898438 122.117188 182.023438 121.890625 C 183.152344 121.667969 184.285156 121.5 185.429688 121.386719 C 186.574219 121.273438 187.71875 121.21875 188.871094 121.21875 C 190.019531 121.21875 191.164062 121.273438 192.308594 121.386719 C 193.453125 121.5 194.585938 121.667969 195.714844 121.890625 C 196.84375 122.117188 197.957031 122.394531 199.054688 122.730469 C 200.15625 123.0625 201.234375 123.449219 202.296875 123.890625 C 203.359375 124.328125 204.394531 124.820312 205.410156 125.359375 C 206.421875 125.902344 207.40625 126.492188 208.363281 127.132812 C 209.320312 127.769531 210.242188 128.453125 211.128906 129.183594 C 212.015625 129.910156 212.867188 130.683594 213.679688 131.496094 C 214.492188 132.308594 215.261719 133.15625 215.992188 134.046875 C 216.722656 134.933594 217.40625 135.855469 218.042969 136.8125 C 218.683594 137.765625 219.273438 138.75 219.8125 139.765625 C 220.355469 140.777344 220.847656 141.816406 221.285156 142.878906 C 221.726562 143.941406 222.113281 145.019531 222.445312 146.121094 C 222.78125 147.21875 223.058594 148.332031 223.28125 149.460938 C 223.507812 150.585938 223.675781 151.722656 223.789062 152.867188 C 223.902344 154.011719 223.957031 155.15625 223.957031 156.304688 C 223.957031 157.453125 223.898438 158.601562 223.785156 159.742188 C 223.671875 160.886719 223.5 162.019531 223.277344 163.148438 C 223.050781 164.273438 222.769531 165.386719 222.4375 166.484375 C 222.101562 167.585938 221.714844 168.664062 221.277344 169.726562 C 220.835938 170.789062 220.34375 171.824219 219.800781 172.835938 C 219.261719 173.851562 218.667969 174.835938 218.03125 175.789062 C 217.394531 176.746094 216.710938 177.664062 215.980469 178.554688 C 215.25 179.441406 214.480469 180.292969 213.667969 181.105469 C 212.855469 181.917969 212.007812 182.6875 211.117188 183.417969 C 210.230469 184.144531 209.308594 184.828125 208.355469 185.46875 C 207.398438 186.105469 206.414062 186.695312 205.402344 187.238281 C 204.390625 187.78125 203.351562 188.269531 202.289062 188.710938 C 201.230469 189.152344 200.148438 189.539062 199.050781 189.871094 C 197.953125 190.207031 196.839844 190.488281 195.710938 190.710938 C 194.585938 190.9375 193.449219 191.105469 192.308594 191.21875 C 191.164062 191.335938 190.019531 191.390625 188.871094 191.394531 Z M 188.871094 123.410156 C 187.792969 123.410156 186.71875 123.464844 185.644531 123.570312 C 184.574219 123.675781 183.507812 123.832031 182.453125 124.042969 C 181.394531 124.253906 180.351562 124.515625 179.320312 124.828125 C 178.289062 125.140625 177.277344 125.503906 176.28125 125.914062 C 175.285156 126.328125 174.3125 126.789062 173.363281 127.296875 C 172.414062 127.804688 171.488281 128.355469 170.59375 128.953125 C 169.699219 129.554688 168.835938 130.195312 168 130.878906 C 167.167969 131.5625 166.371094 132.285156 165.609375 133.046875 C 164.847656 133.808594 164.125 134.605469 163.441406 135.4375 C 162.757812 136.269531 162.117188 137.132812 161.519531 138.03125 C 160.921875 138.925781 160.367188 139.847656 159.859375 140.800781 C 159.351562 141.75 158.890625 142.722656 158.480469 143.71875 C 158.066406 144.710938 157.703125 145.726562 157.390625 146.757812 C 157.078125 147.789062 156.816406 148.832031 156.605469 149.886719 C 156.398438 150.945312 156.238281 152.007812 156.132812 153.082031 C 156.027344 154.152344 155.976562 155.226562 155.976562 156.304688 C 155.976562 157.382812 156.027344 158.457031 156.132812 159.53125 C 156.238281 160.601562 156.398438 161.667969 156.605469 162.722656 C 156.816406 163.78125 157.078125 164.824219 157.390625 165.855469 C 157.703125 166.886719 158.066406 167.898438 158.480469 168.894531 C 158.890625 169.890625 159.351562 170.863281 159.859375 171.8125 C 160.367188 172.761719 160.921875 173.683594 161.519531 174.582031 C 162.117188 175.476562 162.757812 176.339844 163.441406 177.171875 C 164.125 178.007812 164.847656 178.804688 165.609375 179.566406 C 166.371094 180.328125 167.167969 181.050781 168 181.734375 C 168.835938 182.417969 169.699219 183.058594 170.59375 183.65625 C 171.488281 184.253906 172.414062 184.808594 173.363281 185.316406 C 174.3125 185.824219 175.285156 186.285156 176.28125 186.695312 C 177.277344 187.109375 178.289062 187.46875 179.320312 187.785156 C 180.351562 188.097656 181.394531 188.359375 182.453125 188.566406 C 183.507812 188.777344 184.574219 188.9375 185.644531 189.042969 C 186.71875 189.148438 187.792969 189.199219 188.871094 189.199219 C 189.945312 189.199219 191.023438 189.148438 192.09375 189.042969 C 193.164062 188.9375 194.230469 188.777344 195.285156 188.566406 C 196.34375 188.359375 197.386719 188.097656 198.417969 187.785156 C 199.449219 187.46875 200.460938 187.109375 201.457031 186.695312 C 202.453125 186.285156 203.425781 185.824219 204.375 185.316406 C 205.324219 184.808594 206.25 184.253906 207.144531 183.65625 C 208.039062 183.058594 208.90625 182.417969 209.738281 181.734375 C 210.570312 181.050781 211.367188 180.328125 212.128906 179.566406 C 212.890625 178.804688 213.613281 178.007812 214.296875 177.171875 C 214.980469 176.339844 215.621094 175.476562 216.21875 174.582031 C 216.820312 173.683594 217.371094 172.761719 217.878906 171.8125 C 218.386719 170.863281 218.847656 169.890625 219.261719 168.894531 C 219.671875 167.898438 220.035156 166.886719 220.347656 165.855469 C 220.660156 164.824219 220.921875 163.78125 221.132812 162.722656 C 221.34375 161.667969 221.5 160.601562 221.605469 159.53125 C 221.710938 158.457031 221.765625 157.382812 221.765625 156.304688 C 221.761719 155.226562 221.707031 154.152344 221.601562 153.082031 C 221.496094 152.011719 221.335938 150.945312 221.125 149.890625 C 220.914062 148.835938 220.652344 147.792969 220.339844 146.761719 C 220.027344 145.730469 219.664062 144.71875 219.25 143.722656 C 218.835938 142.726562 218.375 141.757812 217.867188 140.804688 C 217.359375 139.855469 216.808594 138.933594 216.207031 138.039062 C 215.609375 137.144531 214.96875 136.28125 214.285156 135.449219 C 213.601562 134.613281 212.878906 133.816406 212.117188 133.054688 C 211.355469 132.296875 210.558594 131.574219 209.726562 130.890625 C 208.894531 130.207031 208.03125 129.566406 207.136719 128.964844 C 206.242188 128.367188 205.316406 127.8125 204.367188 127.304688 C 203.417969 126.796875 202.445312 126.335938 201.453125 125.925781 C 200.457031 125.511719 199.445312 125.148438 198.414062 124.835938 C 197.382812 124.523438 196.339844 124.261719 195.285156 124.050781 C 194.226562 123.839844 193.164062 123.679688 192.09375 123.574219 C 191.019531 123.464844 189.945312 123.414062 188.871094 123.410156 Z M 188.871094 123.410156 " fill-opacity="1" fill-rule="nonzero"/></g><path fill="#000000" d="M 222.859375 157.402344 L 154.875 157.402344 C 154.730469 157.402344 154.589844 157.375 154.453125 157.320312 C 154.320312 157.265625 154.203125 157.1875 154.097656 157.082031 C 153.996094 156.980469 153.917969 156.863281 153.859375 156.726562 C 153.804688 156.59375 153.777344 156.453125 153.777344 156.308594 C 153.777344 156.164062 153.804688 156.023438 153.859375 155.886719 C 153.917969 155.753906 153.996094 155.636719 154.097656 155.53125 C 154.203125 155.429688 154.320312 155.351562 154.453125 155.292969 C 154.589844 155.238281 154.730469 155.210938 154.875 155.210938 L 222.859375 155.210938 C 223.007812 155.210938 223.144531 155.238281 223.28125 155.292969 C 223.414062 155.351562 223.53125 155.429688 223.636719 155.53125 C 223.738281 155.636719 223.816406 155.753906 223.875 155.886719 C 223.929688 156.023438 223.957031 156.164062 223.957031 156.308594 C 223.957031 156.453125 223.929688 156.59375 223.875 156.726562 C 223.816406 156.863281 223.738281 156.980469 223.636719 157.082031 C 223.53125 157.1875 223.414062 157.265625 223.28125 157.320312 C 223.144531 157.375 223.007812 157.402344 222.859375 157.402344 Z M 222.859375 157.402344 " fill-opacity="1" fill-rule="nonzero"/><g transform="matrix(1, 0, 0, 1, 78, 203)"><g clip-path="url(#c33f8d251b)"><g fill="#000000" fill-opacity="1"><g transform="translate(0.393764, 24.725655)"><g><path d="M 17.96875 -12.046875 L 14 -12.046875 C 13.851562 -13.066406 13.421875 -13.867188 12.703125 -14.453125 C 11.984375 -15.035156 11.085938 -15.328125 10.015625 -15.328125 C 8.578125 -15.328125 7.425781 -14.796875 6.5625 -13.734375 C 5.695312 -12.679688 5.265625 -11.191406 5.265625 -9.265625 C 5.265625 -7.285156 5.695312 -5.78125 6.5625 -4.75 C 7.4375 -3.726562 8.578125 -3.21875 9.984375 -3.21875 C 11.023438 -3.21875 11.90625 -3.488281 12.625 -4.03125 C 13.351562 -4.570312 13.8125 -5.335938 14 -6.328125 L 17.96875 -6.3125 C 17.820312 -5.175781 17.414062 -4.109375 16.75 -3.109375 C 16.082031 -2.109375 15.171875 -1.296875 14.015625 -0.671875 C 12.867188 -0.0546875 11.503906 0.25 9.921875 0.25 C 8.265625 0.25 6.785156 -0.117188 5.484375 -0.859375 C 4.179688 -1.609375 3.15625 -2.691406 2.40625 -4.109375 C 1.65625 -5.535156 1.28125 -7.253906 1.28125 -9.265625 C 1.28125 -11.285156 1.660156 -13.003906 2.421875 -14.421875 C 3.179688 -15.835938 4.210938 -16.914062 5.515625 -17.65625 C 6.816406 -18.40625 8.285156 -18.78125 9.921875 -18.78125 C 11.347656 -18.78125 12.632812 -18.515625 13.78125 -17.984375 C 14.9375 -17.460938 15.878906 -16.695312 16.609375 -15.6875 C 17.335938 -14.6875 17.789062 -13.472656 17.96875 -12.046875 Z M 17.96875 -12.046875 "/></g></g></g><g fill="#000000" fill-opacity="1"><g transform="translate(17.726244, 24.725655)"><g><path d="M 18.640625 -9.265625 C 18.640625 -7.242188 18.257812 -5.523438 17.5 -4.109375 C 16.738281 -2.691406 15.703125 -1.609375 14.390625 -0.859375 C 13.078125 -0.117188 11.601562 0.25 9.96875 0.25 C 8.320312 0.25 6.84375 -0.117188 5.53125 -0.859375 C 4.21875 -1.609375 3.179688 -2.691406 2.421875 -4.109375 C 1.660156 -5.535156 1.28125 -7.253906 1.28125 -9.265625 C 1.28125 -11.285156 1.660156 -13.003906 2.421875 -14.421875 C 3.179688 -15.835938 4.21875 -16.914062 5.53125 -17.65625 C 6.84375 -18.40625 8.320312 -18.78125 9.96875 -18.78125 C 11.601562 -18.78125 13.078125 -18.40625 14.390625 -17.65625 C 15.703125 -16.914062 16.738281 -15.835938 17.5 -14.421875 C 18.257812 -13.003906 18.640625 -11.285156 18.640625 -9.265625 Z M 14.671875 -9.265625 C 14.671875 -11.234375 14.238281 -12.734375 13.375 -13.765625 C 12.519531 -14.804688 11.382812 -15.328125 9.96875 -15.328125 C 8.539062 -15.328125 7.398438 -14.804688 6.546875 -13.765625 C 5.691406 -12.734375 5.265625 -11.234375 5.265625 -9.265625 C 5.265625 -7.304688 5.691406 -5.804688 6.546875 -4.765625 C 7.398438 -3.734375 8.539062 -3.21875 9.96875 -3.21875 C 11.382812 -3.21875 12.519531 -3.734375 13.375 -4.765625 C 14.238281 -5.804688 14.671875 -7.304688 14.671875 -9.265625 Z M 14.671875 -9.265625 "/></g></g></g><g fill="#000000" fill-opacity="1"><g transform="translate(35.818903, 24.725655)"><g><path d="M 13.09375 -18.53125 L 16.984375 -18.53125 L 16.984375 -6.28125 C 16.984375 -4.882812 16.648438 -3.695312 15.984375 -2.71875 C 15.328125 -1.75 14.421875 -1.007812 13.265625 -0.5 C 12.109375 0.0078125 10.785156 0.265625 9.296875 0.265625 C 7.796875 0.265625 6.46875 0.0078125 5.3125 -0.5 C 4.15625 -1.007812 3.25 -1.75 2.59375 -2.71875 C 1.9375 -3.695312 1.609375 -4.882812 1.609375 -6.28125 L 1.609375 -18.53125 L 5.53125 -18.53125 L 5.53125 -6.421875 C 5.53125 -5.429688 5.882812 -4.648438 6.59375 -4.078125 C 7.3125 -3.515625 8.210938 -3.234375 9.296875 -3.234375 C 10.390625 -3.234375 11.296875 -3.515625 12.015625 -4.078125 C 12.734375 -4.648438 13.09375 -5.429688 13.09375 -6.421875 Z M 13.09375 -18.53125 "/></g></g></g><g fill="#000000" fill-opacity="1"><g transform="translate(52.572195, 24.725655)"><g><path d="M 1.609375 0 L 1.609375 -18.53125 L 8.921875 -18.53125 C 10.328125 -18.53125 11.523438 -18.265625 12.515625 -17.734375 C 13.503906 -17.203125 14.257812 -16.460938 14.78125 -15.515625 C 15.300781 -14.566406 15.5625 -13.476562 15.5625 -12.25 C 15.5625 -11.019531 15.296875 -9.9375 14.765625 -9 C 14.234375 -8.0625 13.460938 -7.328125 12.453125 -6.796875 C 11.453125 -6.273438 10.242188 -6.015625 8.828125 -6.015625 L 5.53125 -6.015625 L 5.53125 0 Z M 5.53125 -9.15625 L 8.1875 -9.15625 C 9.3125 -9.15625 10.148438 -9.441406 10.703125 -10.015625 C 11.253906 -10.585938 11.53125 -11.332031 11.53125 -12.25 C 11.53125 -13.175781 11.253906 -13.921875 10.703125 -14.484375 C 10.148438 -15.046875 9.304688 -15.328125 8.171875 -15.328125 L 5.53125 -15.328125 Z M 5.53125 -9.15625 "/></g></g></g><g fill="#000000" fill-opacity="1"><g transform="translate(67.244025, 24.725655)"><g><path d="M 1.609375 0 L 1.609375 -18.53125 L 14.09375 -18.53125 L 14.09375 -15.296875 L 5.53125 -15.296875 L 5.53125 -10.890625 L 13.453125 -10.890625 L 13.453125 -7.65625 L 5.53125 -7.65625 L 5.53125 -3.234375 L 14.140625 -3.234375 L 14.140625 0 Z M 1.609375 0 "/></g></g></g><g fill="#000000" fill-opacity="1"><g transform="translate(81.019925, 24.725655)"><g/></g></g><g fill="#000000" fill-opacity="1"><g transform="translate(85.094413, 24.725655)"><g><path d="M 8.1875 0 L 1.609375 0 L 1.609375 -18.53125 L 8.234375 -18.53125 C 10.097656 -18.53125 11.703125 -18.160156 13.046875 -17.421875 C 14.398438 -16.679688 15.4375 -15.617188 16.15625 -14.234375 C 16.882812 -12.859375 17.25 -11.207031 17.25 -9.28125 C 17.25 -7.351562 16.882812 -5.691406 16.15625 -4.296875 C 15.425781 -2.910156 14.382812 -1.847656 13.03125 -1.109375 C 11.675781 -0.367188 10.0625 0 8.1875 0 Z M 5.53125 -3.359375 L 8.015625 -3.359375 C 9.765625 -3.359375 11.085938 -3.828125 11.984375 -4.765625 C 12.890625 -5.710938 13.34375 -7.21875 13.34375 -9.28125 C 13.34375 -11.34375 12.890625 -12.835938 11.984375 -13.765625 C 11.085938 -14.703125 9.769531 -15.171875 8.03125 -15.171875 L 5.53125 -15.171875 Z M 5.53125 -3.359375 "/></g></g></g><g fill="#000000" fill-opacity="1"><g transform="translate(101.793403, 24.725655)"><g><path d="M 1.609375 0 L 1.609375 -18.53125 L 14.09375 -18.53125 L 14.09375 -15.296875 L 5.53125 -15.296875 L 5.53125 -10.890625 L 13.453125 -10.890625 L 13.453125 -7.65625 L 5.53125 -7.65625 L 5.53125 -3.234375 L 14.140625 -3.234375 L 14.140625 0 Z M 1.609375 0 "/></g></g></g><g fill="#000000" fill-opacity="1"><g transform="translate(115.569303, 24.725655)"><g/></g></g><g fill="#000000" fill-opacity="1"><g transform="translate(119.643791, 24.725655)"><g><path d="M 1.609375 0 L 1.609375 -18.53125 L 13.875 -18.53125 L 13.875 -15.296875 L 5.53125 -15.296875 L 5.53125 -10.890625 L 13.0625 -10.890625 L 13.0625 -7.65625 L 5.53125 -7.65625 L 5.53125 0 Z M 1.609375 0 "/></g></g></g><g fill="#000000" fill-opacity="1"><g transform="translate(132.7138, 24.725655)"><g><path d="M 1.609375 0 L 1.609375 -18.53125 L 8.921875 -18.53125 C 11.023438 -18.53125 12.65625 -17.976562 13.8125 -16.875 C 14.976562 -15.78125 15.5625 -14.316406 15.5625 -12.484375 C 15.5625 -11.210938 15.28125 -10.125 14.71875 -9.21875 C 14.15625 -8.320312 13.347656 -7.648438 12.296875 -7.203125 L 16.21875 0 L 11.90625 0 L 8.390625 -6.5625 L 5.53125 -6.5625 L 5.53125 0 Z M 5.53125 -9.71875 L 8.1875 -9.71875 C 10.414062 -9.71875 11.53125 -10.640625 11.53125 -12.484375 C 11.53125 -14.378906 10.410156 -15.328125 8.171875 -15.328125 L 5.53125 -15.328125 Z M 5.53125 -9.71875 "/></g></g></g><g fill="#000000" fill-opacity="1"><g transform="translate(147.602817, 24.725655)"><g><path d="M 4.8125 0 L 0.609375 0 L 7 -18.53125 L 12.046875 -18.53125 L 18.4375 0 L 14.25 0 L 12.875 -4.21875 L 6.1875 -4.21875 Z M 7.171875 -7.28125 L 11.875 -7.28125 L 9.609375 -14.296875 L 9.453125 -14.296875 Z M 7.171875 -7.28125 "/></g></g></g><g fill="#000000" fill-opacity="1"><g transform="translate(164.8267, 24.725655)"><g><path d="M 17.109375 -18.53125 L 17.109375 0 L 13.734375 0 L 5.671875 -11.671875 L 5.53125 -11.671875 L 5.53125 0 L 1.609375 0 L 1.609375 -18.53125 L 5.046875 -18.53125 L 13.046875 -6.875 L 13.21875 -6.875 L 13.21875 -18.53125 Z M 17.109375 -18.53125 "/></g></g></g><g fill="#000000" fill-opacity="1"><g transform="translate(181.724785, 24.725655)"><g><path d="M 17.96875 -12.046875 L 14 -12.046875 C 13.851562 -13.066406 13.421875 -13.867188 12.703125 -14.453125 C 11.984375 -15.035156 11.085938 -15.328125 10.015625 -15.328125 C 8.578125 -15.328125 7.425781 -14.796875 6.5625 -13.734375 C 5.695312 -12.679688 5.265625 -11.191406 5.265625 -9.265625 C 5.265625 -7.285156 5.695312 -5.78125 6.5625 -4.75 C 7.4375 -3.726562 8.578125 -3.21875 9.984375 -3.21875 C 11.023438 -3.21875 11.90625 -3.488281 12.625 -4.03125 C 13.351562 -4.570312 13.8125 -5.335938 14 -6.328125 L 17.96875 -6.3125 C 17.820312 -5.175781 17.414062 -4.109375 16.75 -3.109375 C 16.082031 -2.109375 15.171875 -1.296875 14.015625 -0.671875 C 12.867188 -0.0546875 11.503906 0.25 9.921875 0.25 C 8.265625 0.25 6.785156 -0.117188 5.484375 -0.859375 C 4.179688 -1.609375 3.15625 -2.691406 2.40625 -4.109375 C 1.65625 -5.535156 1.28125 -7.253906 1.28125 -9.265625 C 1.28125 -11.285156 1.660156 -13.003906 2.421875 -14.421875 C 3.179688 -15.835938 4.210938 -16.914062 5.515625 -17.65625 C 6.816406 -18.40625 8.285156 -18.78125 9.921875 -18.78125 C 11.347656 -18.78125 12.632812 -18.515625 13.78125 -17.984375 C 14.9375 -17.460938 15.878906 -16.695312 16.609375 -15.6875 C 17.335938 -14.6875 17.789062 -13.472656 17.96875 -12.046875 Z M 17.96875 -12.046875 "/></g></g></g><g fill="#000000" fill-opacity="1"><g transform="translate(199.057272, 24.725655)"><g><path d="M 1.609375 0 L 1.609375 -18.53125 L 14.09375 -18.53125 L 14.09375 -15.296875 L 5.53125 -15.296875 L 5.53125 -10.890625 L 13.453125 -10.890625 L 13.453125 -7.65625 L 5.53125 -7.65625 L 5.53125 -3.234375 L 14.140625 -3.234375 L 14.140625 0 Z M 1.609375 0 "/></g></g></g><g fill="#000000" fill-opacity="1"><g transform="translate(212.839553, 24.725655)"><g/></g></g><g fill="#000000" fill-opacity="1"><g transform="translate(29.41727, 47.185831)"><g><path d="M 8.1875 0 L 1.609375 0 L 1.609375 -18.53125 L 8.234375 -18.53125 C 10.097656 -18.53125 11.703125 -18.160156 13.046875 -17.421875 C 14.398438 -16.679688 15.4375 -15.617188 16.15625 -14.234375 C 16.882812 -12.859375 17.25 -11.207031 17.25 -9.28125 C 17.25 -7.351562 16.882812 -5.691406 16.15625 -4.296875 C 15.425781 -2.910156 14.382812 -1.847656 13.03125 -1.109375 C 11.675781 -0.367188 10.0625 0 8.1875 0 Z M 5.53125 -3.359375 L 8.015625 -3.359375 C 9.765625 -3.359375 11.085938 -3.828125 11.984375 -4.765625 C 12.890625 -5.710938 13.34375 -7.21875 13.34375 -9.28125 C 13.34375 -11.34375 12.890625 -12.835938 11.984375 -13.765625 C 11.085938 -14.703125 9.769531 -15.171875 8.03125 -15.171875 L 5.53125 -15.171875 Z M 5.53125 -3.359375 "/></g></g></g><g fill="#000000" fill-opacity="1"><g transform="translate(46.116259, 47.185831)"><g><path d="M 1.609375 0 L 1.609375 -18.53125 L 14.09375 -18.53125 L 14.09375 -15.296875 L 5.53125 -15.296875 L 5.53125 -10.890625 L 13.453125 -10.890625 L 13.453125 -7.65625 L 5.53125 -7.65625 L 5.53125 -3.234375 L 14.140625 -3.234375 L 14.140625 0 Z M 1.609375 0 "/></g></g></g><g fill="#000000" fill-opacity="1"><g transform="translate(59.892159, 47.185831)"><g/></g></g><g fill="#000000" fill-opacity="1"><g transform="translate(63.966648, 47.185831)"><g><path d="M 1.609375 0 L 1.609375 -18.53125 L 9.03125 -18.53125 C 11.070312 -18.53125 12.609375 -18.082031 13.640625 -17.1875 C 14.671875 -16.300781 15.1875 -15.164062 15.1875 -13.78125 C 15.1875 -12.6875 14.867188 -11.800781 14.234375 -11.125 C 13.597656 -10.457031 12.800781 -10.015625 11.84375 -9.796875 L 11.84375 -9.625 C 12.539062 -9.59375 13.195312 -9.390625 13.8125 -9.015625 C 14.4375 -8.648438 14.941406 -8.140625 15.328125 -7.484375 C 15.710938 -6.828125 15.90625 -6.039062 15.90625 -5.125 C 15.90625 -4.132812 15.660156 -3.253906 15.171875 -2.484375 C 14.691406 -1.710938 13.976562 -1.101562 13.03125 -0.65625 C 12.082031 -0.21875 10.914062 0 9.53125 0 Z M 5.53125 -3.203125 L 8.71875 -3.203125 C 9.820312 -3.203125 10.617188 -3.410156 11.109375 -3.828125 C 11.609375 -4.253906 11.859375 -4.816406 11.859375 -5.515625 C 11.859375 -6.273438 11.582031 -6.898438 11.03125 -7.390625 C 10.488281 -7.878906 9.75 -8.125 8.8125 -8.125 L 5.53125 -8.125 Z M 5.53125 -10.78125 L 8.4375 -10.78125 C 9.238281 -10.78125 9.90625 -10.988281 10.4375 -11.40625 C 10.96875 -11.820312 11.234375 -12.394531 11.234375 -13.125 C 11.234375 -13.800781 10.992188 -14.34375 10.515625 -14.75 C 10.046875 -15.15625 9.375 -15.359375 8.5 -15.359375 L 5.53125 -15.359375 Z M 5.53125 -10.78125 "/></g></g></g><g fill="#000000" fill-opacity="1"><g transform="translate(78.973317, 47.185831)"><g><path d="M 4.8125 0 L 0.609375 0 L 7 -18.53125 L 12.046875 -18.53125 L 18.4375 0 L 14.25 0 L 12.875 -4.21875 L 6.1875 -4.21875 Z M 7.171875 -7.28125 L 11.875 -7.28125 L 9.609375 -14.296875 L 9.453125 -14.296875 Z M 7.171875 -7.28125 "/></g></g></g><g fill="#000000" fill-opacity="1"><g transform="translate(96.197193, 47.185831)"><g><path d="M 1.609375 0 L 1.609375 -18.53125 L 8.921875 -18.53125 C 11.023438 -18.53125 12.65625 -17.976562 13.8125 -16.875 C 14.976562 -15.78125 15.5625 -14.316406 15.5625 -12.484375 C 15.5625 -11.210938 15.28125 -10.125 14.71875 -9.21875 C 14.15625 -8.320312 13.347656 -7.648438 12.296875 -7.203125 L 16.21875 0 L 11.90625 0 L 8.390625 -6.5625 L 5.53125 -6.5625 L 5.53125 0 Z M 5.53125 -9.71875 L 8.1875 -9.71875 C 10.414062 -9.71875 11.53125 -10.640625 11.53125 -12.484375 C 11.53125 -14.378906 10.410156 -15.328125 8.171875 -15.328125 L 5.53125 -15.328125 Z M 5.53125 -9.71875 "/></g></g></g><g fill="#000000" fill-opacity="1"><g transform="translate(111.086217, 47.185831)"><g><path d="M 1.609375 0 L 1.609375 -18.53125 L 9.03125 -18.53125 C 11.070312 -18.53125 12.609375 -18.082031 13.640625 -17.1875 C 14.671875 -16.300781 15.1875 -15.164062 15.1875 -13.78125 C 15.1875 -12.6875 14.867188 -11.800781 14.234375 -11.125 C 13.597656 -10.457031 12.800781 -10.015625 11.84375 -9.796875 L 11.84375 -9.625 C 12.539062 -9.59375 13.195312 -9.390625 13.8125 -9.015625 C 14.4375 -8.648438 14.941406 -8.140625 15.328125 -7.484375 C 15.710938 -6.828125 15.90625 -6.039062 15.90625 -5.125 C 15.90625 -4.132812 15.660156 -3.253906 15.171875 -2.484375 C 14.691406 -1.710938 13.976562 -1.101562 13.03125 -0.65625 C 12.082031 -0.21875 10.914062 0 9.53125 0 Z M 5.53125 -3.203125 L 8.71875 -3.203125 C 9.820312 -3.203125 10.617188 -3.410156 11.109375 -3.828125 C 11.609375 -4.253906 11.859375 -4.816406 11.859375 -5.515625 C 11.859375 -6.273438 11.582031 -6.898438 11.03125 -7.390625 C 10.488281 -7.878906 9.75 -8.125 8.8125 -8.125 L 5.53125 -8.125 Z M 5.53125 -10.78125 L 8.4375 -10.78125 C 9.238281 -10.78125 9.90625 -10.988281 10.4375 -11.40625 C 10.96875 -11.820312 11.234375 -12.394531 11.234375 -13.125 C 11.234375 -13.800781 10.992188 -14.34375 10.515625 -14.75 C 10.046875 -15.15625 9.375 -15.359375 8.5 -15.359375 L 5.53125 -15.359375 Z M 5.53125 -10.78125 "/></g></g></g><g fill="#000000" fill-opacity="1"><g transform="translate(126.092887, 47.185831)"><g><path d="M 1.609375 0 L 1.609375 -18.53125 L 14.09375 -18.53125 L 14.09375 -15.296875 L 5.53125 -15.296875 L 5.53125 -10.890625 L 13.453125 -10.890625 L 13.453125 -7.65625 L 5.53125 -7.65625 L 5.53125 -3.234375 L 14.140625 -3.234375 L 14.140625 0 Z M 1.609375 0 "/></g></g></g><g fill="#000000" fill-opacity="1"><g transform="translate(139.868787, 47.185831)"><g><path d="M 17.96875 -12.046875 L 14 -12.046875 C 13.851562 -13.066406 13.421875 -13.867188 12.703125 -14.453125 C 11.984375 -15.035156 11.085938 -15.328125 10.015625 -15.328125 C 8.578125 -15.328125 7.425781 -14.796875 6.5625 -13.734375 C 5.695312 -12.679688 5.265625 -11.191406 5.265625 -9.265625 C 5.265625 -7.285156 5.695312 -5.78125 6.5625 -4.75 C 7.4375 -3.726562 8.578125 -3.21875 9.984375 -3.21875 C 11.023438 -3.21875 11.90625 -3.488281 12.625 -4.03125 C 13.351562 -4.570312 13.8125 -5.335938 14 -6.328125 L 17.96875 -6.3125 C 17.820312 -5.175781 17.414062 -4.109375 16.75 -3.109375 C 16.082031 -2.109375 15.171875 -1.296875 14.015625 -0.671875 C 12.867188 -0.0546875 11.503906 0.25 9.921875 0.25 C 8.265625 0.25 6.785156 -0.117188 5.484375 -0.859375 C 4.179688 -1.609375 3.15625 -2.691406 2.40625 -4.109375 C 1.65625 -5.535156 1.28125 -7.253906 1.28125 -9.265625 C 1.28125 -11.285156 1.660156 -13.003906 2.421875 -14.421875 C 3.179688 -15.835938 4.210938 -16.914062 5.515625 -17.65625 C 6.816406 -18.40625 8.285156 -18.78125 9.921875 -18.78125 C 11.347656 -18.78125 12.632812 -18.515625 13.78125 -17.984375 C 14.9375 -17.460938 15.878906 -16.695312 16.609375 -15.6875 C 17.335938 -14.6875 17.789062 -13.472656 17.96875 -12.046875 Z M 17.96875 -12.046875 "/></g></g></g><g fill="#000000" fill-opacity="1"><g transform="translate(157.20126, 47.185831)"><g><path d="M 13.09375 -18.53125 L 16.984375 -18.53125 L 16.984375 -6.28125 C 16.984375 -4.882812 16.648438 -3.695312 15.984375 -2.71875 C 15.328125 -1.75 14.421875 -1.007812 13.265625 -0.5 C 12.109375 0.0078125 10.785156 0.265625 9.296875 0.265625 C 7.796875 0.265625 6.46875 0.0078125 5.3125 -0.5 C 4.15625 -1.007812 3.25 -1.75 2.59375 -2.71875 C 1.9375 -3.695312 1.609375 -4.882812 1.609375 -6.28125 L 1.609375 -18.53125 L 5.53125 -18.53125 L 5.53125 -6.421875 C 5.53125 -5.429688 5.882812 -4.648438 6.59375 -4.078125 C 7.3125 -3.515625 8.210938 -3.234375 9.296875 -3.234375 C 10.390625 -3.234375 11.296875 -3.515625 12.015625 -4.078125 C 12.734375 -4.648438 13.09375 -5.429688 13.09375 -6.421875 Z M 13.09375 -18.53125 "/></g></g></g><g fill="#000000" fill-opacity="1"><g transform="translate(173.954559, 47.185831)"><g><path d="M 1.609375 0 L 1.609375 -18.53125 L 14.09375 -18.53125 L 14.09375 -15.296875 L 5.53125 -15.296875 L 5.53125 -10.890625 L 13.453125 -10.890625 L 13.453125 -7.65625 L 5.53125 -7.65625 L 5.53125 -3.234375 L 14.140625 -3.234375 L 14.140625 0 Z M 1.609375 0 "/></g></g></g></g></g></svg>