<svg width="107" height="30" viewBox="0 0 107 30" fill="none" xmlns="http://www.w3.org/2000/svg">
<path d="M0 3.36865C0 1.44371 1.38576 0 3.37601 0C5.36625 0 6.74916 1.44371 6.74916 3.36865C6.74916 5.29359 5.3634 6.69868 3.37601 6.69868C1.38861 6.69868 0 5.29359 0 3.36865ZM0.496136 29.4831V9.1613H6.21596V29.4831H0.496136Z" fill="#284B73"/>
<path d="M41.6953 3.36865C41.6953 1.44371 43.0782 0 45.0685 0C47.0587 0 48.4445 1.44371 48.4445 3.36865C48.4445 5.29359 47.0473 6.69868 45.0685 6.69868C43.0896 6.69868 41.6953 5.29359 41.6953 3.36865ZM42.2 29.4831V9.1613H47.9027V29.4831H42.2Z" fill="#284B73"/>
<path d="M55.0312 29.4832V9.16141H60.6085V12.236C61.9943 10.014 64.7658 8.64453 68.2102 8.64453C71.0616 8.64453 73.2913 9.45847 74.9964 11.0864C76.7386 12.8271 77.4828 15.269 77.4828 19.5615V29.4832H71.7573V19.4159C71.7573 17.084 71.2612 15.6759 70.1606 14.7877C69.1735 14.0248 67.9673 13.6331 66.7389 13.6767C64.0387 13.6767 61.9059 15.0848 61.0904 17.3424C60.8261 18.1773 60.7054 19.0542 60.734 19.9328V29.4832H55.0312Z" fill="#284B73"/>
<path d="M85.5094 27.1127C83.4393 25.1877 82.409 22.5974 82.4185 19.3416C82.4185 16.1215 83.4479 13.5668 85.555 11.6181C87.6622 9.66934 90.4223 8.64746 93.7983 8.64746C96.9348 8.64746 99.6236 9.75846 101.497 11.7933V9.16137H107.003V29.4832H101.508V26.8542C99.6265 28.8891 96.9262 30.0001 93.8097 30.0001C90.3396 30.003 87.5681 29.0376 85.5094 27.1127ZM101.317 19.3416C101.317 15.7501 98.7511 13.4925 94.6737 13.4925C90.8015 13.4925 88.2439 15.7888 88.2439 19.3416C88.2439 22.8944 90.8101 25.1521 94.6737 25.1521C98.7597 25.1521 101.317 22.8944 101.317 19.3416Z" fill="#284B73"/>
<path d="M36.9966 9.16113L29.2381 18.7353L37.909 29.4829H30.0764L24.1997 18.7353L29.4348 9.16113H36.9966Z" fill="#284B73"/>
<path d="M11.4056 9.16113L19.1613 18.7353L10.4932 29.4829H18.323L24.1996 18.7353L18.9645 9.16113H11.4056Z" fill="#284B73"/>
</svg>
