<?xml version="1.0" encoding="UTF-8" standalone="no"?>
<!-- Created with Inkscape (http://www.inkscape.org/) -->

<svg
   width="132.29167mm"
   height="38.403263mm"
   viewBox="0 0 132.29167 38.403263"
   version="1.1"
   id="svg1"
   xml:space="preserve"
   inkscape:version="1.3.2 (091e20e, 2023-11-25)"
   sodipodi:docname="Logo Veepee.svg"
   xmlns:inkscape="http://www.inkscape.org/namespaces/inkscape"
   xmlns:sodipodi="http://sodipodi.sourceforge.net/DTD/sodipodi-0.dtd"
   xmlns="http://www.w3.org/2000/svg"
   xmlns:svg="http://www.w3.org/2000/svg"><sodipodi:namedview
     id="namedview1"
     pagecolor="#ffffff"
     bordercolor="#666666"
     borderopacity="1.0"
     inkscape:showpageshadow="2"
     inkscape:pageopacity="0.0"
     inkscape:pagecheckerboard="0"
     inkscape:deskcolor="#d1d1d1"
     inkscape:document-units="mm"
     inkscape:zoom="0.2102413"
     inkscape:cx="118.91098"
     inkscape:cy="33.295075"
     inkscape:window-width="1440"
     inkscape:window-height="449"
     inkscape:window-x="0"
     inkscape:window-y="25"
     inkscape:window-maximized="0"
     inkscape:current-layer="layer1" /><defs
     id="defs1" /><g
     inkscape:label="Calque 1"
     inkscape:groupmode="layer"
     id="layer1"
     transform="translate(-72.785257,-139.30698)"><g
       id="g1"
       style="fill:none;fill-rule:evenodd;stroke:none;stroke-width:1"
       transform="matrix(0.55264026,0,0,0.55264026,72.785257,139.30698)"><path
         d="m 232.9785,23.505047 c -0.28202,-3.017641 -0.97595,-5.769002 -2.06182,-8.298369 1.85471,-3.864213 3.76062,-5.2948177 3.76062,-5.2948177 0,0 3.92,10.0346477 0.48075,20.3470777 -2.12748,6.38064 -4.67352,10.232776 -6.03852,11.887676 -0.30487,0.369225 -0.57417,0.483674 -0.40785,0.260241 3.21509,-4.33466 4.98562,-11.228017 4.26682,-18.901808 m 3.11384,12.162582 c -1.58801,1.913703 -3.1931,3.769894 -4.96624,5.189859 -0.25483,0.203017 -0.41595,0.188351 -0.2207,-0.02502 6.27426,-6.848498 13.08913,-22.02412 4.25641,-36.9806224 0,0 -3.49219,2.4111796 -6.35959,7.4100994 C 225.97532,6.9085974 221.85978,3.2600528 216.73908,0 c 0,0 -12.95636,14.440622 -7.22504,35.358791 -16.52781,2.279765 -10.52632,15.04047 -7.90653,16.876532 0.12149,0.08598 0.22562,0.04227 0.0567,-0.216532 -0.92938,-1.424853 -3.52661,-6.408533 1.82752,-11.188333 2.87203,-2.563874 8.89376,-3.232447 8.89376,-3.232447 -1.36905,-10.043563 -1.27243,-19.118052 5.59075,-29.1616143 0.87673,0.5808686 10.91566,4.9943193 11.29285,19.8524763 0.83971,9.318915 -3.99897,16.777899 -8.69389,19.681379 -8.3219,4.463199 -17.65909,6.652671 -25.77619,8.558034 -0.68901,0.162759 -0.42087,0.237524 0.0388,0.217107 19.28558,-0.811203 36.43066,-9.485123 43.02252,-17.7625 1.26983,-1.590487 1.83735,-3.343445 0.98173,-4.313668 -0.85533,-0.970223 -2.40372,0.577993 -2.74967,0.998404"
         id="Fill-14"
         fill="#ec008c" /><path
         d="m 166.42603,41.803228 c 0.48451,-3.098733 1.85529,-4.577072 7.61756,-4.577072 6.14525,0 7.59645,1.60659 7.89988,4.577072 z m 7.61756,-9.268017 c -4.00417,0 -13.38243,0 -13.38243,12.342882 0,12.346619 9.37826,12.346619 13.38243,12.346619 h 12.40736 v -4.694683 h -12.40736 c -6.30202,0 -7.62247,-1.585886 -7.90045,-6.035857 h 21.53541 v -1.616079 c 0,-12.342882 -9.2076,-12.342882 -13.63496,-12.342882 z"
         id="Fill-6"
         fill="#000000" /><path
         d="m 135.68107,41.803228 c 0.48567,-3.098733 1.85819,-4.576209 7.6193,-4.576209 6.14351,0 7.59471,1.605727 7.89814,4.576209 z m 7.6193,-9.268017 c -4.00417,0 -13.38302,0 -13.38302,12.342882 0,12.346044 9.37885,12.346044 13.38302,12.346044 h 12.40562 v -4.693532 h -12.40562 c -6.30318,0 -7.62306,-1.585887 -7.90219,-6.035857 h 21.53715 v -1.616655 c 0,-12.342882 -9.21049,-12.342882 -13.63496,-12.342882 z"
         id="Fill-8"
         fill="#000000" /><path
         d="m 112.31922,52.530605 c -8.33955,0 -8.68232,-1.584736 -8.68232,-7.652225 0,-5.9401 0.37025,-7.651361 8.68232,-7.651361 8.31611,0 8.68781,1.711261 8.68781,7.651361 0,5.940388 -0.3717,7.652225 -8.68781,7.652225 m 0,-19.995394 c -7.44951,0 -14.137402,0.944055 -14.137402,12.343169 V 69.490528 H 103.6369 V 55.924372 c 2.60475,1.195382 5.83401,1.299765 8.68232,1.299765 7.45471,0 14.14347,-0.942042 14.14347,-12.345757 0,-11.399114 -6.68876,-12.343169 -14.14347,-12.343169"
         id="Fill-1"
         fill="#000000" /><path
         d="m 73.201446,41.803228 c 0.484504,-3.098733 1.858182,-4.576209 7.617562,-4.576209 6.144091,0 7.596157,1.605727 7.901033,4.576209 z m 7.617562,-9.268017 c -4.004173,0 -13.380991,0 -13.380991,12.342882 0,12.346044 9.376818,12.346044 13.380991,12.346044 H 93.227521 V 52.530605 H 80.819008 c -6.301446,0 -7.621322,-1.585887 -7.900454,-6.035857 h 21.53657 v -1.616655 c 0,-12.342882 -9.211942,-12.342882 -13.636116,-12.342882 z"
         id="Fill-10"
         fill="#000000" /><path
         d="m 42.456488,41.803228 c 0.486818,-3.098733 1.858181,-4.576209 7.620454,-4.576209 6.143513,0 7.597025,1.605727 7.899298,4.576209 z m 7.620454,-9.268017 c -4.004173,0 -13.382727,0 -13.382727,12.342882 0,12.346044 9.378554,12.346044 13.382727,12.346044 h 12.40562 v -4.693532 h -12.40562 c -6.303182,0 -7.621611,-1.585887 -7.90219,-6.035857 h 21.537149 v -1.616655 c 0,-12.342882 -9.209339,-12.342882 -13.634959,-12.342882 z"
         id="Fill-12"
         fill="#000000" /><polygon
         fill="#000000"
         points="23.643802,56.672764 42.367355,19.71831 36.31438,19.71831 21.19438,50.267969 6.1302066,19.876467 6.0469008,19.71831 -1.1759482e-12,19.71831 18.664545,56.524096 18.750165,56.672764 "
         id="polygon1" /></g></g></svg>
